<svg width="1489" height="535" viewBox="0 0 1489 535" fill="none" xmlns="http://www.w3.org/2000/svg">
<path d="M529 267.5C529 409.643 412.888 525 269.5 525C126.112 525 10 409.643 10 267.5C10 125.357 126.112 10 269.5 10C412.888 10 529 125.357 529 267.5Z" fill="#2ABC69" stroke="white" stroke-width="20"/>
<path d="M457.185 131.908C475.085 269.635 473.458 370.23 357.921 394.491C242.237 418.9 313.541 247.001 313.541 247.001C313.541 247.001 390.023 217.858 406.148 182.206C422.273 146.406 444.019 94.6288 457.185 131.908Z" fill="#A5A8AE"/>
<path d="M457.188 131.906C465.916 198.772 469.911 257.058 458.668 301.882L421.832 285.757C421.832 285.757 442.395 160.309 451.567 121.402C453.49 123.473 455.413 126.876 457.188 131.906Z" fill="#383540"/>
<path d="M82.6204 131.908C64.7204 269.635 66.4957 370.23 182.032 394.491C297.569 418.9 226.264 247.001 226.264 247.001C226.264 247.001 149.93 217.858 133.806 182.206C117.681 146.406 95.7866 94.6288 82.6204 131.908Z" fill="#A5A8AE"/>
<path d="M82.6208 131.906C73.8927 198.772 69.8985 257.058 81.2894 301.882L117.977 285.757C117.977 285.757 97.4142 160.309 88.3903 121.402C86.3192 123.473 84.396 126.876 82.6208 131.906Z" fill="#383540"/>
<path d="M269.303 416.979C330.252 416.979 379.958 405.588 379.958 391.534C379.958 377.48 330.252 365.941 269.303 365.941C208.354 365.941 158.648 377.48 158.648 391.534C158.648 405.588 208.354 416.979 269.303 416.979Z" fill="#383540"/>
<path d="M201.407 411.502C126.404 398.632 73 363.276 73 304.694C73 229.543 161.169 144.629 269.9 144.629C378.632 144.629 466.801 229.543 466.801 304.694C466.801 363.276 413.397 398.632 338.394 411.502C354.963 382.211 184.69 381.767 201.407 411.502Z" fill="#CED4D9"/>
<path fill-rule="evenodd" clip-rule="evenodd" d="M190.46 204.543H349.489C360.732 204.543 371.679 206.762 381.591 210.904C391.798 215.194 401.118 221.555 408.958 229.248C424.196 244.485 433.664 265.492 433.664 288.717C433.664 300.108 431.297 310.908 427.154 320.819C422.864 331.175 416.651 340.347 408.958 348.187C401.118 355.88 391.798 362.241 381.591 366.531C371.679 370.525 360.732 372.892 349.489 372.892H190.46C179.069 372.892 168.27 370.525 158.358 366.531C148.003 362.241 138.683 355.88 130.99 348.187C123.15 340.347 116.936 331.175 112.646 320.819C108.504 310.908 106.285 300.108 106.285 288.717C106.285 277.327 108.504 266.527 112.646 256.616C116.936 246.26 123.15 237.089 130.99 229.248C138.683 221.555 148.003 215.194 158.358 210.904C168.27 206.762 179.069 204.543 190.46 204.543ZM349.489 207.945H190.46C179.513 207.945 169.157 210.017 159.541 214.011C149.778 218.153 140.754 224.218 133.357 231.615C125.813 239.16 119.895 248.036 115.753 257.947C111.759 267.415 109.54 277.77 109.54 288.717C109.54 299.665 111.759 310.02 115.753 319.488C119.895 329.399 125.813 338.275 133.357 345.82C140.754 353.217 149.778 359.282 159.541 363.424C169.157 367.271 179.513 369.49 190.46 369.49H349.489C360.288 369.49 370.792 367.271 380.259 363.424C390.171 359.282 399.047 353.217 406.444 345.82C413.988 338.275 420.054 329.399 424.048 319.488C428.042 310.02 430.261 299.665 430.261 288.717C430.261 266.527 421.089 246.26 406.444 231.615C399.047 224.218 390.171 218.153 380.259 214.011C370.792 210.017 360.288 207.945 349.489 207.945ZM349.489 224.662C358.069 224.662 366.353 226.437 373.898 229.544C381.739 232.798 388.691 237.532 394.609 243.45C400.526 249.367 405.408 256.468 408.663 264.308C411.769 271.853 413.544 280.137 413.544 288.717C413.544 297.298 411.769 305.582 408.663 313.127C405.408 320.967 400.526 328.068 394.609 333.985C388.691 339.755 381.739 344.637 373.898 347.891C366.353 350.998 358.069 352.773 349.489 352.773H190.46C181.732 352.773 173.595 350.998 166.051 347.891C158.21 344.637 151.109 339.755 145.192 333.985C139.275 328.068 134.541 320.967 131.286 313.127C128.179 305.582 126.404 297.298 126.404 288.717C126.404 271.113 133.653 255.136 145.192 243.45C151.109 237.532 158.21 232.798 166.051 229.544C173.595 226.437 181.732 224.662 190.46 224.662H349.489ZM349.489 228.064H190.46C182.175 228.064 174.483 229.692 167.234 232.65C159.837 235.757 153.18 240.195 147.559 245.817C136.612 256.912 129.807 272.001 129.807 288.717C129.807 296.854 131.434 304.694 134.393 311.795C137.499 319.192 141.937 325.997 147.559 331.47C153.18 337.092 159.837 341.678 167.234 344.785C174.483 347.743 182.175 349.37 190.46 349.37H349.489C357.625 349.37 365.466 347.743 372.567 344.785C379.963 341.678 386.62 337.092 392.242 331.47C397.863 325.997 402.449 319.192 405.556 311.795C408.515 304.694 410.142 296.854 410.142 288.717C410.142 280.581 408.515 272.741 405.556 265.64C402.449 258.095 397.863 251.438 392.242 245.817C386.62 240.195 379.963 235.757 372.567 232.65C365.466 229.692 357.625 228.064 349.489 228.064Z" fill="#A5A8AE"/>
<path d="M190.456 216.234H349.486C389.28 216.234 421.826 248.928 421.826 288.722C421.826 328.516 389.28 361.062 349.486 361.062H190.456C150.514 361.062 117.969 328.516 117.969 288.722C117.969 248.928 150.514 216.234 190.456 216.234Z" fill="#383540"/>
<path d="M201.702 322.748C219.011 322.748 233.064 308.695 233.064 291.534C233.064 274.374 219.011 260.32 201.702 260.32C184.542 260.32 170.488 274.374 170.488 291.534C170.488 308.695 184.542 322.748 201.702 322.748Z" fill="#6DB8DA"/>
<path d="M340.909 322.748C358.07 322.748 372.124 308.695 372.124 291.534C372.124 274.374 358.07 260.32 340.909 260.32C323.749 260.32 309.695 274.374 309.695 291.534C309.695 308.695 323.749 322.748 340.909 322.748Z" fill="#6DB8DA"/>
<path d="M269.897 131.617C308.803 131.617 340.461 145.523 340.461 162.535C340.461 179.548 308.803 193.306 269.897 193.306C230.99 193.306 199.332 179.548 199.332 162.535C199.332 145.523 230.99 131.617 269.897 131.617Z" fill="#383540"/>
<path d="M210.433 289.464C216.202 289.464 220.788 284.73 220.788 278.96C220.788 273.191 216.202 268.457 210.433 268.457C204.516 268.457 199.93 273.191 199.93 278.96C199.93 284.73 204.516 289.464 210.433 289.464Z" fill="white"/>
<path d="M355.406 289.464C361.175 289.464 365.909 284.73 365.909 278.96C365.909 273.191 361.175 268.457 355.406 268.457C349.636 268.457 344.902 273.191 344.902 278.96C344.902 284.73 349.636 289.464 355.406 289.464Z" fill="white"/>
<path d="M337.505 153.659C333.807 158.097 327.89 162.092 320.345 165.346C307.475 170.968 289.575 174.518 269.899 174.518C238.981 174.518 212.649 165.79 202.441 153.511C202.935 152.723 203.526 151.934 204.217 151.145C213.241 162.979 239.277 171.412 269.899 171.412C289.131 171.412 306.587 168.009 319.161 162.535C326.558 159.429 332.18 155.435 335.582 151.145C336.273 151.934 336.914 152.772 337.505 153.659Z" fill="#A5A8AE"/>
<path d="M298.151 326.15C298.151 334.878 292.53 341.979 269.304 341.979C246.079 341.979 240.457 334.878 240.457 326.15C240.457 315.351 298.151 315.351 298.151 326.15Z" fill="white"/>
<path d="M588 154.755C596.955 155.854 606.02 156.624 615.194 157.064C624.586 157.504 633.105 157.723 640.749 157.723C649.705 157.723 658.442 157.504 666.96 157.064C675.697 156.844 684.871 156.404 694.482 155.744C702.782 155.304 712.174 154.755 722.659 154.095C733.143 153.435 744.064 152.775 755.422 152.116L757.388 180.815C757.388 182.794 757.497 185.323 757.716 188.402C757.716 191.041 757.716 194.34 757.716 198.299C757.934 202.257 758.152 206.876 758.371 212.154C750.508 218.971 743.409 225.459 737.075 231.616C730.959 237.554 725.716 242.832 721.348 247.451C716.106 252.949 711.519 258.007 707.587 262.625C702.564 268.563 697.212 275.82 691.533 284.397C685.854 292.754 680.503 301.001 675.479 309.138C670.674 317.055 666.742 324.203 663.684 330.58C660.626 336.738 659.316 340.587 659.752 342.126C659.971 343.226 662.155 343.885 666.305 344.105C670.455 344.105 675.479 343.885 681.376 343.446C687.492 343.006 694.154 342.346 701.362 341.466C708.789 340.367 715.669 339.267 722.003 338.168C728.556 336.848 734.344 335.528 739.368 334.209C744.392 332.889 747.668 331.57 749.197 330.25C751.163 328.491 753.347 325.302 755.75 320.684C757.934 316.725 760.337 311.227 762.958 304.19C765.797 296.933 768.964 287.256 772.459 275.161C772.678 284.177 772.787 291.874 772.787 298.252C773.005 304.63 773.333 310.018 773.77 314.416C773.988 319.474 774.316 323.653 774.753 326.952C774.971 330.47 775.408 334.429 776.063 338.827C776.5 342.566 777.046 347.294 777.701 353.012C778.357 358.73 779.23 365.108 780.323 372.145C764.596 370.166 751.381 368.846 740.679 368.187C729.976 367.307 721.348 366.757 714.795 366.537C707.15 366.317 701.035 366.317 696.448 366.537C691.642 367.197 685.09 368.187 676.789 369.506C669.8 370.606 660.517 372.365 648.94 374.784C637.364 376.983 622.839 379.952 605.365 383.691C604.928 379.512 604.491 375.884 604.054 372.805C603.617 369.726 603.18 366.977 602.744 364.558C602.307 362.139 601.87 359.83 601.433 357.63C600.996 355.651 600.45 352.902 599.795 349.383C599.358 346.305 598.594 342.566 597.501 338.168C596.628 333.549 595.536 327.831 594.225 321.014C607.331 307.379 618.143 295.943 626.661 286.706C635.398 277.25 642.388 269.553 647.63 263.615C653.746 256.577 658.551 250.969 662.046 246.791C665.322 242.612 669.581 237.554 674.824 231.616C679.192 226.558 684.871 220.291 691.861 212.813C698.85 205.116 707.26 195.989 717.089 185.433C707.041 184.994 697.649 184.994 688.912 185.433C680.393 185.873 672.967 186.533 666.633 187.413C659.206 188.292 652.326 189.502 645.992 191.041C640.094 192.801 634.088 195.66 627.972 199.618C622.729 202.917 617.05 207.535 610.935 213.473C604.819 219.411 599.03 227.108 593.57 236.565C593.133 229.307 592.805 223.15 592.587 218.091C592.368 213.033 592.15 208.855 591.932 205.556C591.713 201.817 591.495 198.738 591.276 196.319C591.276 193.9 591.058 190.711 590.621 186.753C590.184 183.454 589.747 179.276 589.311 174.217C588.874 168.939 588.437 162.452 588 154.755Z" fill="white"/>
<path d="M870.423 331.9C876.538 331.9 882.217 331.24 887.46 329.921C891.828 328.821 895.978 327.062 899.91 324.642C904.06 322.003 906.79 318.155 908.101 313.097C912.469 313.976 916.182 314.746 919.24 315.406C922.298 315.846 924.919 316.286 927.104 316.725C929.506 317.385 931.581 317.825 933.329 318.045C935.076 318.485 937.151 318.925 939.554 319.364C941.738 319.804 944.359 320.354 947.417 321.014C950.693 321.454 954.516 322.113 958.884 322.993C955.608 322.553 952.222 322.883 948.728 323.983C945.451 325.082 942.284 326.292 939.226 327.611C935.731 329.151 932.455 331.02 929.397 333.219C927.431 334.539 925.138 336.518 922.517 339.157C920.114 341.796 916.619 344.325 912.032 346.744C907.445 349.163 901.33 351.253 893.685 353.012C886.258 354.552 876.648 355.101 864.853 354.661C850.655 354.222 838.751 351.693 829.14 347.074C819.53 342.236 811.776 336.408 805.878 329.591C799.981 322.553 795.721 314.966 793.1 306.829C790.479 298.692 789.06 291.105 788.841 284.067C788.623 277.03 790.698 269.663 795.066 261.965C799.435 254.268 805.551 247.231 813.414 240.853C821.496 234.475 831.215 229.307 842.573 225.349C853.932 221.17 866.382 219.081 879.924 219.081C887.787 219.081 894.995 220.071 901.548 222.05C908.319 223.809 914.435 226.228 919.896 229.307C925.575 232.386 930.489 235.905 934.639 239.863C938.789 243.602 942.284 247.451 945.124 251.409C947.963 255.588 950.366 259.986 952.332 264.604C954.079 268.563 955.499 273.071 956.591 278.129C957.683 283.188 958.011 288.356 957.574 293.634C940.974 294.074 927.54 294.404 917.275 294.623C907.227 294.843 899.364 294.953 893.685 294.953H867.801C863.87 294.953 858.737 295.063 852.403 295.283C846.068 295.503 838.314 295.833 829.14 296.273C830.232 305.07 832.963 311.887 837.331 316.725C841.918 321.344 846.724 324.862 851.747 327.281C857.426 329.921 863.651 331.46 870.423 331.9ZM840.935 272.522C847.925 272.961 853.713 273.291 858.3 273.511C863.105 273.731 867.037 273.951 870.095 274.171C873.371 274.391 875.992 274.501 877.958 274.501H886.149C891.61 274.501 901.766 274.171 916.619 273.511C915.964 263.835 913.889 256.467 910.394 251.409C907.118 246.351 903.623 242.612 899.91 240.193C895.541 237.554 890.736 236.015 885.494 235.575C871.296 235.795 860.703 238.764 853.713 244.482C846.942 250.2 842.683 259.546 840.935 272.522ZM855.024 191.371L889.753 157.394L906.135 174.877L863.542 203.907L855.024 191.371Z" fill="white"/>
<path d="M960.85 149.147C967.84 150.906 974.502 152.225 980.836 153.105C987.17 153.985 992.74 154.645 997.545 155.084C1003.22 155.744 1008.47 155.964 1013.27 155.744C1019.39 155.744 1027.03 155.194 1036.21 154.095C1045.6 152.995 1055.21 152.006 1065.04 151.126C1074.87 150.026 1084.26 149.367 1093.22 149.147C1102.39 148.707 1109.82 149.257 1115.49 150.796C1121.17 152.116 1126.96 154.205 1132.86 157.064C1138.98 159.703 1144.54 163.112 1149.57 167.29C1154.59 171.249 1158.74 175.977 1162.02 181.475C1165.3 186.753 1167.15 192.801 1167.59 199.618C1167.37 208.195 1165.4 216.222 1161.69 223.699C1158.63 230.077 1153.5 236.675 1146.29 243.492C1139.08 250.09 1128.71 255.148 1115.17 258.667C1121.94 259.546 1127.73 261.086 1132.53 263.285C1137.56 265.264 1141.81 267.683 1145.31 270.542C1149.02 273.181 1151.97 276.15 1154.16 279.449C1156.56 282.748 1158.41 286.047 1159.73 289.345C1163 297.043 1164.53 305.619 1164.31 315.076C1163 327.391 1160.49 337.178 1156.78 344.435C1153.28 351.693 1149.24 357.301 1144.65 361.259C1140.07 365.218 1135.37 367.967 1130.57 369.506C1125.76 371.045 1121.39 372.255 1117.46 373.135C1113.53 374.014 1108.72 374.454 1103.04 374.454C1097.37 374.454 1091.25 374.344 1084.7 374.124C1078.36 373.685 1071.81 373.355 1065.04 373.135C1058.27 372.695 1051.82 372.695 1045.71 373.135C1040.68 373.575 1034.57 374.014 1027.36 374.454C1021.24 374.894 1013.6 375.444 1004.43 376.104C995.252 376.543 984.549 377.093 972.317 377.753C974.72 375.994 976.686 374.014 978.215 371.815C979.962 369.396 981.382 367.307 982.474 365.547C983.566 363.348 984.549 361.259 985.423 359.28C986.078 357.52 986.624 352.682 987.061 344.765C987.498 336.848 987.826 327.391 988.044 316.395C988.262 305.18 988.372 293.194 988.372 280.439C988.59 267.463 988.481 255.038 988.044 243.162C987.826 231.067 987.389 220.401 986.733 211.164C986.297 201.707 985.641 194.89 984.768 190.711C983.457 186.093 981.71 181.365 979.525 176.527C977.778 172.348 975.266 167.84 971.99 163.002C968.932 158.163 965.219 153.545 960.85 149.147ZM1029.98 182.794C1029.98 183.674 1030.09 186.643 1030.31 191.701C1030.53 196.099 1030.75 202.917 1030.96 212.154C1031.4 221.17 1031.95 234.036 1032.6 250.749C1038.06 253.169 1043.41 254.488 1048.66 254.708C1053.9 254.708 1058.6 254.488 1062.75 254.048C1067.55 253.388 1072.14 252.289 1076.51 250.749C1082.4 248.33 1086.99 244.372 1090.27 238.874C1093.76 233.376 1096.05 227.658 1097.15 221.72C1098.46 215.562 1098.79 209.844 1098.13 204.566C1097.47 199.068 1096.05 195.11 1093.87 192.691C1089.72 188.952 1084.59 185.873 1078.47 183.454C1073.23 181.475 1066.57 180.155 1058.49 179.496C1050.62 178.616 1041.12 179.715 1029.98 182.794ZM1028.34 339.157C1036.42 343.336 1043.52 346.085 1049.64 347.404C1055.76 348.724 1060.89 349.383 1065.04 349.383C1069.84 349.383 1073.99 348.724 1077.49 347.404C1081.64 345.425 1085.68 342.786 1089.61 339.487C1093.76 335.968 1096.82 331.9 1098.79 327.281C1100.97 322.443 1101.84 317.165 1101.41 311.447C1100.97 305.509 1098.46 299.022 1093.87 291.984C1089.72 286.926 1084.7 282.968 1078.8 280.109C1073.56 277.69 1066.9 276.15 1058.81 275.49C1050.95 274.831 1041.23 276.7 1029.65 281.098L1028.34 339.157Z" fill="white"/>
<path d="M1270.47 237.224C1276.15 237.224 1282.04 238.324 1288.16 240.523C1294.27 242.502 1300.17 245.142 1305.85 248.44C1311.53 251.519 1316.66 254.928 1321.25 258.667C1326.06 262.185 1329.99 265.594 1333.05 268.893C1338.51 274.831 1342.22 282.858 1344.18 292.974C1346.37 302.87 1346.81 313.097 1345.5 323.653C1344.18 333.989 1341.13 343.775 1336.32 353.012C1331.52 362.249 1324.85 369.066 1316.34 373.465C1310.22 376.543 1304.21 378.963 1298.32 380.722C1292.42 382.481 1286.74 383.801 1281.28 384.68C1275.82 385.56 1270.68 386 1265.88 386C1261.07 386 1256.92 385.89 1253.43 385.67C1246.88 385.23 1240 382.921 1232.79 378.743C1225.8 374.564 1219.14 369.396 1212.8 363.238C1206.69 357.081 1201.44 350.373 1197.08 343.116C1192.71 335.638 1190.09 328.601 1189.21 322.003C1187.9 312.987 1187.68 303.53 1188.56 293.634C1189.43 283.737 1192.6 274.611 1198.06 266.254C1203.74 257.897 1212.26 250.969 1223.61 245.471C1235.19 239.973 1250.81 237.224 1270.47 237.224ZM1259.65 365.218C1262.06 365.657 1265.33 365.108 1269.48 363.568C1273.63 361.809 1277.67 359.06 1281.61 355.321C1285.76 351.583 1289.36 346.854 1292.42 341.136C1295.69 335.199 1297.66 328.051 1298.32 319.694C1298.97 311.557 1298.97 304.08 1298.32 297.262C1297.88 290.445 1296.9 284.507 1295.37 279.449C1293.84 274.171 1292.09 269.882 1290.12 266.584C1288.16 263.285 1286.08 260.976 1283.9 259.656C1280.19 257.677 1275.71 256.137 1270.47 255.038C1265.22 253.718 1260.75 253.938 1257.03 255.698C1255.29 256.577 1253.1 258.447 1250.48 261.306C1247.86 264.165 1245.24 267.793 1242.62 272.192C1240 276.37 1237.59 281.208 1235.41 286.706C1233.44 292.204 1232.02 297.922 1231.15 303.86C1230.28 309.798 1230.06 316.176 1230.49 322.993C1231.15 329.811 1232.57 336.298 1234.75 342.456C1236.94 348.394 1240 353.562 1243.93 357.96C1248.08 362.139 1253.32 364.558 1259.65 365.218Z" fill="white"/>
<path d="M1357.29 177.186C1363.84 177.846 1369.3 178.396 1373.67 178.836C1378.26 179.276 1381.97 179.605 1384.81 179.825C1388.09 180.045 1390.71 180.155 1392.67 180.155C1394.64 180.375 1397.26 180.375 1400.54 180.155C1403.38 179.935 1407.09 179.715 1411.68 179.496C1416.26 179.056 1422.05 178.396 1429.04 177.516C1427.51 179.715 1426.31 181.695 1425.44 183.454C1424.56 184.994 1423.8 186.423 1423.15 187.743L1421.18 191.701C1420.74 193.021 1420.31 194.34 1419.87 195.66C1419.43 196.759 1419 198.079 1418.56 199.618C1418.34 201.158 1418.12 202.807 1417.9 204.566H1468.36L1463.77 231.287L1417.58 228.648C1416.48 239.863 1415.72 248.55 1415.28 254.708C1414.84 260.866 1414.41 265.374 1413.97 268.233L1413.32 274.171C1412.66 282.528 1412.01 291.655 1411.35 301.551C1410.69 311.227 1410.48 320.244 1410.69 328.601C1410.91 336.958 1411.68 343.995 1412.99 349.713C1414.3 355.211 1416.59 357.96 1419.87 357.96C1423.15 357.96 1426.2 357.081 1429.04 355.321C1431.88 353.562 1434.28 351.473 1436.25 349.054C1438.43 346.634 1440.07 344.215 1441.17 341.796C1442.26 339.157 1442.8 337.178 1442.8 335.858C1442.8 334.539 1442.48 332.999 1441.82 331.24C1440.73 327.941 1438.76 323.763 1435.92 318.705C1442.26 320.244 1447.83 321.783 1452.63 323.323C1455.04 324.203 1457.22 325.082 1459.19 325.962C1461.37 326.842 1463.88 327.831 1466.72 328.931C1469.12 330.03 1472.18 331.35 1475.89 332.889C1479.61 334.429 1483.98 336.298 1489 338.497C1484.19 339.377 1480.7 340.807 1478.52 342.786C1477.21 343.665 1476.22 344.655 1475.57 345.755C1474.04 348.174 1472.29 351.473 1470.32 355.651C1468.36 359.61 1465.41 363.568 1461.48 367.527C1457.55 371.485 1452.2 375.004 1445.42 378.083C1438.87 381.162 1430.03 382.921 1418.89 383.361C1407.31 383.801 1398.46 381.822 1392.35 377.423C1386.45 373.025 1382.08 367.967 1379.24 362.249C1376.62 356.311 1375.09 350.483 1374.65 344.765C1374.22 339.047 1373.89 335.199 1373.67 333.219C1373.45 331.24 1373.45 326.292 1373.67 318.375C1373.89 310.458 1374.22 301.771 1374.65 292.314C1375.09 282.638 1375.53 273.401 1375.97 264.604C1376.4 255.588 1376.62 248.99 1376.62 244.812C1376.62 242.612 1376.73 240.303 1376.95 237.884C1376.95 235.905 1376.95 233.816 1376.95 231.616C1377.17 229.197 1377.28 226.888 1377.28 224.689L1329.77 224.359L1327.8 205.556L1375.64 206.876C1375.2 204.456 1374.65 202.257 1374 200.278C1373.56 198.079 1373.13 196.319 1372.69 195C1372.03 193.46 1371.38 192.141 1370.72 191.041C1369.85 189.942 1368.87 188.732 1367.77 187.413C1366.68 186.313 1365.26 184.884 1363.52 183.124C1361.77 181.365 1359.69 179.386 1357.29 177.186Z" fill="white"/>
</svg>
